<svg width="46" height="46" viewBox="0 0 46 46" fill="none" xmlns="http://www.w3.org/2000/svg">
<path d="M20.75 6.41942H6.16667C5.0616 6.41942 4.00179 6.8584 3.22039 7.63981C2.43899 8.42121 2 9.48101 2 10.5861V39.7528C2 40.8578 2.43899 41.9176 3.22039 42.699C4.00179 43.4804 5.0616 43.9194 6.16667 43.9194H35.3333C36.4384 43.9194 37.4982 43.4804 38.2796 42.699C39.061 41.9176 39.5 40.8578 39.5 39.7528V25.1694M36.375 3.29442C37.2038 2.46562 38.3279 2 39.5 2C40.6721 2 41.7962 2.46562 42.625 3.29442C43.4538 4.12322 43.9194 5.24731 43.9194 6.41942C43.9194 7.59152 43.4538 8.71562 42.625 9.54442L22.8333 29.3361L14.5 31.4194L16.5833 23.0861L36.375 3.29442Z" stroke="#0D1A63" stroke-width="4" stroke-linecap="round" stroke-linejoin="round"/>
</svg>
