<svg width="108" height="108" viewBox="0 0 108 108" fill="none" xmlns="http://www.w3.org/2000/svg">
<g filter="url(#filter0_d_149_618)">
<circle cx="54" cy="50" r="50" fill="#1E1552"/>
</g>
<path d="M44.9673 67.3042C44.9673 67.1821 44.9795 66.999 45.0039 66.7549C45.0527 66.4863 45.2114 66.3521 45.48 66.3521H49.728C49.9478 66.3521 50.1797 66.2788 50.4238 66.1323C50.668 65.9858 50.79 65.7905 50.79 65.5464V43.8667C50.79 42.7192 50.7534 41.7183 50.6802 40.8638C50.6069 40.0093 50.375 39.3623 49.9844 38.9229C49.8135 38.6543 49.6426 38.4834 49.4717 38.4102C49.3252 38.3369 49.2031 38.2759 49.1055 38.2271C48.9834 38.1782 48.8491 38.1416 48.7026 38.1172C48.5806 38.0928 48.4341 38.0806 48.2632 38.0806H47.4941C47.0059 38.0806 46.4199 38.0928 45.7363 38.1172C45.0527 38.1416 44.479 38.1782 44.0151 38.2271C43.9175 38.2271 43.8076 38.2148 43.6855 38.1904C43.5635 38.1416 43.5024 38.0684 43.5024 37.9707C43.5024 37.7021 43.5513 37.5435 43.6489 37.4946C43.771 37.4458 43.9175 37.3726 44.0884 37.2749C45.0405 36.9575 46.0781 36.689 47.2012 36.4692C48.3242 36.2251 49.3984 35.9688 50.4238 35.7002C50.4971 35.7002 50.6558 35.6636 50.8999 35.5903C51.1685 35.4927 51.437 35.395 51.7056 35.2974C51.9985 35.1997 52.2793 35.1021 52.5479 35.0044C52.8164 34.9067 53.0117 34.8335 53.1338 34.7847C53.4512 34.687 53.7686 34.5527 54.0859 34.3818C54.4277 34.1865 54.7695 34.0034 55.1113 33.8325C55.4531 33.6616 55.7827 33.5151 56.1001 33.3931C56.4419 33.271 56.7837 33.21 57.1255 33.21C57.2476 33.21 57.3574 33.271 57.4551 33.3931C57.5771 33.5151 57.6382 33.686 57.6382 33.9058V57.6729C57.6382 58.5518 57.6138 59.2842 57.5649 59.8701C57.5405 60.4316 57.5039 60.9565 57.4551 61.4448C57.4062 61.9087 57.3574 62.3848 57.3086 62.873C57.2842 63.3369 57.272 63.9106 57.272 64.5942C57.272 65.3022 57.3452 65.7783 57.4917 66.0225C57.6626 66.2422 58.1387 66.3521 58.9199 66.3521C59.1885 66.3521 59.6035 66.3276 60.165 66.2788C60.7266 66.2056 61.2026 66.1689 61.5933 66.1689C61.7886 66.1689 61.9961 66.1934 62.2158 66.2422C62.46 66.2666 62.6797 66.3276 62.875 66.4253C63.0947 66.5229 63.2656 66.6572 63.3877 66.8281C63.5342 66.999 63.6074 67.2188 63.6074 67.4873C63.6074 67.6582 63.5708 67.8047 63.4976 67.9268C63.4487 68.0488 63.3145 68.1099 63.0947 68.1099C61.3125 68.1099 59.7012 68.0854 58.2607 68.0366C56.8447 68.0122 55.502 68 54.2324 68C52.0596 68 50.3018 68.0977 48.959 68.293C47.6162 68.4883 46.6641 68.5859 46.1025 68.5859C45.3457 68.5859 44.9673 68.1587 44.9673 67.3042ZM49.9844 19.2939C49.9844 18.6348 50.1064 18.0732 50.3506 17.6094C50.5947 17.1211 50.9121 16.7305 51.3027 16.4375C51.7178 16.1201 52.1938 15.9004 52.731 15.7783C53.2681 15.6318 53.8296 15.5586 54.4155 15.5586C54.9526 15.5586 55.4653 15.6563 55.9536 15.8516C56.4419 16.0469 56.8691 16.3154 57.2354 16.6572C57.6016 16.999 57.8823 17.4019 58.0776 17.8657C58.2974 18.3296 58.4072 18.8179 58.4072 19.3306C58.4072 19.9897 58.2974 20.5635 58.0776 21.0518C57.8579 21.5156 57.5527 21.894 57.1621 22.187C56.7715 22.48 56.3076 22.6997 55.7705 22.8462C55.2578 22.9683 54.6963 23.0293 54.0859 23.0293C52.8164 23.0293 51.8154 22.7363 51.083 22.1504C50.3506 21.5645 49.9844 20.6123 49.9844 19.2939Z" fill="white"/>
<defs>
<filter id="filter0_d_149_618" x="0" y="0" width="108" height="108" filterUnits="userSpaceOnUse" color-interpolation-filters="sRGB">
<feFlood flood-opacity="0" result="BackgroundImageFix"/>
<feColorMatrix in="SourceAlpha" type="matrix" values="0 0 0 0 0 0 0 0 0 0 0 0 0 0 0 0 0 0 127 0" result="hardAlpha"/>
<feOffset dy="4"/>
<feGaussianBlur stdDeviation="2"/>
<feComposite in2="hardAlpha" operator="out"/>
<feColorMatrix type="matrix" values="0 0 0 0 0 0 0 0 0 0 0 0 0 0 0 0 0 0 0.25 0"/>
<feBlend mode="normal" in2="BackgroundImageFix" result="effect1_dropShadow_149_618"/>
<feBlend mode="normal" in="SourceGraphic" in2="effect1_dropShadow_149_618" result="shape"/>
</filter>
</defs>
</svg>
